<?xml version="1.0" standalone="no"?>
<!DOCTYPE svg PUBLIC "-//W3C//DTD SVG 20010904//EN"
 "http://www.w3.org/TR/2001/REC-SVG-20010904/DTD/svg10.dtd">
<svg version="1.0" xmlns="http://www.w3.org/2000/svg"
 width="300.000000pt" height="300.000000pt" viewBox="0 0 300.000000 300.000000"
 preserveAspectRatio="xMidYMid meet">
<metadata>
Created by potrace 1.10, written by Peter Selinger 2001-2011
</metadata>
<g transform="translate(0.000000,300.000000) scale(0.100000,-0.100000)"
fill="#000000" stroke="none">
<path d="M545 2630 c-6 -9 56 -72 64 -65 5 6 -40 75 -49 75 -5 0 -12 -4 -15
-10z"/>
<path d="M970 2620 c-26 -20 -94 -37 -165 -42 -28 -2 -42 -9 -50 -24 -5 -11
-18 -28 -28 -38 -20 -20 -22 -59 -6 -121 7 -30 15 -42 24 -38 8 2 20 -5 27
-16 7 -12 15 -21 18 -21 3 0 6 34 6 76 1 54 5 79 15 85 19 12 209 7 209 -6 0
-5 3 -20 6 -31 5 -19 2 -21 -20 -17 -28 6 -36 -11 -10 -21 32 -12 42 -5 54 42
7 26 20 55 28 64 36 42 -2 128 -57 128 -14 0 -37 -9 -51 -20z m64 -26 c17 -7
21 -50 7 -73 -7 -11 -22 -12 -68 -7 -76 9 -142 7 -165 -5 -11 -6 -28 -25 -38
-42 l-20 -32 0 28 c0 18 11 39 29 58 24 24 38 29 78 29 30 0 67 9 98 24 57 28
58 28 79 20z"/>
<path d="M500 2545 c0 -11 12 -15 48 -14 l47 1 -30 13 c-40 19 -65 18 -65 0z"/>
<path d="M847 2419 c-9 -6 -15 -14 -12 -19 7 -11 65 8 65 21 0 12 -31 11 -53
-2z"/>
<path d="M950 2373 c1 -5 7 -19 15 -33 19 -34 19 -58 -2 -63 -14 -4 -13 -5 4
-6 33 -2 37 15 13 64 -20 42 -30 55 -30 38z"/>
<path d="M720 2317 c0 -15 10 -33 24 -45 28 -21 59 -131 45 -154 -10 -15 56
-88 80 -88 8 0 -4 17 -27 38 -52 48 -55 72 -5 37 21 -14 44 -25 51 -25 9 0 11
-7 7 -22 -6 -22 -6 -22 9 -4 9 11 16 30 16 42 0 17 8 23 35 28 52 10 75 53 74
136 l-2 65 -9 -55 c-5 -30 -11 -65 -14 -77 -5 -28 -80 -73 -121 -73 -48 0 -79
32 -86 86 -4 37 -11 52 -36 71 -31 25 -40 43 -20 43 5 0 8 -4 5 -9 -3 -5 1
-12 10 -15 23 -9 13 14 -14 32 -21 14 -22 13 -22 -11z"/>
<path d="M906 2215 c-9 -9 -16 -18 -16 -19 0 -2 20 -2 45 -2 35 1 45 5 43 16
-4 21 -52 24 -72 5z"/>
<path d="M672 2060 c-159 -92 -255 -398 -209 -663 9 -49 18 -91 20 -94 3 -2
21 -1 41 2 36 7 41 25 6 25 -37 0 -45 36 -45 210 1 184 11 229 82 360 40 75
64 103 112 132 l34 21 44 -51 c48 -55 65 -61 102 -36 18 13 28 14 48 5 29 -13
39 -9 63 31 l18 30 21 -23 c11 -12 49 -77 83 -145 77 -154 109 -198 197 -271
73 -61 92 -90 70 -104 -13 -8 -116 42 -158 77 -9 7 -36 29 -61 49 -45 38 -69
33 -34 -7 28 -30 131 -102 193 -132 54 -28 81 -28 81 -2 0 8 9 21 21 29 20 14
18 16 -38 60 -112 86 -164 152 -242 304 -98 191 -170 259 -171 163 0 -14 -5
-32 -10 -40 -8 -12 -13 -11 -33 8 l-24 23 -33 -27 -32 -27 -23 29 c-13 16 -32
44 -42 62 -10 17 -20 32 -23 32 -3 0 -29 -14 -58 -30z"/>
<path d="M1047 1908 c3 -13 10 -80 17 -148 11 -100 14 -113 15 -63 1 71 -17
214 -29 226 -4 5 -5 -2 -3 -15z"/>
<path d="M662 1782 c-18 -38 -41 -104 -52 -148 -22 -84 -39 -314 -24 -314 5 0
8 20 6 45 -4 50 13 197 31 265 12 43 12 40 18 -80 l6 -125 -1 137 c-1 75 2
134 7 131 4 -2 7 7 7 21 0 14 9 49 20 77 30 76 18 70 -18 -9z"/>
<path d="M1058 1624 c-3 -3 -4 -77 -1 -164 l6 -159 -58 -17 c-72 -20 -281 -15
-360 10 -27 8 -50 14 -51 13 -1 -1 7 -63 17 -137 10 -74 28 -252 40 -395 11
-143 25 -263 30 -266 6 -3 6 -16 -1 -33 -16 -44 -13 -46 55 -46 73 0 82 11 40
50 -14 13 -22 26 -17 29 4 3 18 107 31 231 32 321 45 413 57 417 6 2 17 -51
28 -144 16 -143 47 -526 43 -546 -4 -22 173 -41 180 -20 3 7 -19 24 -47 38
-49 25 -52 28 -46 58 13 71 36 302 46 462 16 272 19 297 31 311 9 11 10 54 5
157 -7 132 -13 166 -28 151z m-353 -364 c19 -5 23 -8 11 -9 -14 -1 -17 -4 -10
-11 6 -6 76 -10 173 -11 148 0 162 -1 157 -17 -3 -9 -8 -60 -11 -112 -6 -100
-18 -248 -36 -416 -6 -56 -11 -117 -12 -135 -1 -22 -8 -35 -18 -37 -14 -2 -17
18 -23 155 -11 224 -14 258 -31 348 -21 106 -20 111 11 152 l26 35 -31 -17
c-18 -9 -40 -15 -49 -14 -32 3 -39 -1 -52 -28 -13 -30 -56 -375 -67 -536 -3
-54 -9 -99 -12 -102 -19 -11 -29 19 -35 105 -21 299 -33 422 -49 509 -11 61
-10 64 12 82 21 18 22 19 4 19 -26 0 -32 7 -26 31 6 20 18 22 68 9z"/>
<path d="M1586 1484 c-39 -8 -73 -19 -76 -24 -4 -7 -20 -6 -47 4 -30 11 -44
11 -52 3 -22 -22 -10 -34 58 -51 l69 -18 12 -46 c6 -26 38 -164 71 -307 33
-142 64 -262 69 -265 4 -3 48 -2 97 2 106 8 178 9 172 4 -2 -2 -56 -9 -119
-16 -130 -13 -142 -20 -161 -90 -15 -58 2 -100 46 -114 17 -5 37 -11 45 -13
11 -4 9 -7 -8 -14 -35 -13 -48 -53 -28 -84 32 -48 111 -23 104 33 -4 37 -24
38 -32 2 -4 -23 -11 -31 -23 -28 -24 4 -28 34 -8 64 12 19 20 23 29 15 8 -7
16 -7 22 -1 13 13 428 14 453 1 11 -6 22 -7 25 -2 8 12 108 21 126 11 25 -13
71 0 68 19 -3 14 -42 16 -381 18 -279 1 -382 4 -392 13 -21 17 -19 79 4 116
21 34 33 38 174 50 49 4 77 11 77 19 0 11 100 22 477 51 45 4 87 10 93 14 8 5
17 73 26 186 7 99 15 188 16 199 5 40 -5 42 -139 27 l-128 -14 -330 41 c-449
56 -402 46 -410 89 -4 20 -11 42 -16 48 -7 9 6 14 49 19 68 8 87 17 79 39 -7
19 -18 19 -111 0z m134 -201 c3 -3 10 -34 16 -69 l10 -65 -54 3 -55 3 -17 72
-17 71 56 -5 c31 -3 58 -8 61 -10z m138 -18 c3 -3 22 -118 19 -120 -1 0 -27 1
-58 3 l-57 4 -6 49 c-4 27 -9 56 -13 65 -5 14 2 15 53 9 32 -4 60 -9 62 -10z
m100 -11 c29 -6 30 -9 34 -60 l3 -54 -48 0 c-52 0 -52 0 -61 73 -5 44 -4 47
18 47 13 0 37 -3 54 -6z m138 -18 c1 -1 4 -22 6 -48 l6 -48 -49 0 -49 0 0 39
c0 22 -3 46 -6 55 -5 14 1 15 42 10 27 -4 50 -7 50 -8z m102 -12 c19 -5 22
-13 22 -51 l0 -44 -47 3 -48 3 -3 48 c-3 46 -2 47 25 47 15 0 38 -3 51 -6z
m152 -5 c0 -8 14 -10 45 -6 l45 7 0 -45 c0 -32 -4 -45 -14 -45 -7 0 -28 -3
-45 -6 -31 -6 -31 -6 -31 38 0 24 -5 49 -12 56 -9 9 -9 12 0 12 7 0 12 -5 12
-11z m200 -21 c0 -46 -9 -54 -59 -63 -39 -6 -43 -5 -38 10 4 9 7 29 7 45 0 29
10 35 68 39 19 1 22 -4 22 -31z m-252 12 c8 0 12 -15 12 -43 l0 -43 -35 4
c-34 4 -35 5 -35 49 0 42 2 45 23 39 12 -3 28 -6 35 -6z m-581 -80 c30 0 32
-2 43 -57 6 -32 13 -65 16 -74 4 -14 -5 -18 -43 -21 -26 -3 -49 -3 -51 -2 -2
1 -10 31 -18 65 -8 35 -17 73 -20 83 -5 16 -2 18 17 13 13 -4 38 -7 56 -7z
m167 -47 c4 -27 9 -60 12 -75 6 -28 5 -28 -49 -28 l-54 0 -7 53 c-4 28 -10 62
-13 75 -5 21 -2 22 50 22 l55 0 6 -47z m112 33 c1 0 4 -30 8 -66 l6 -65 -44 0
c-24 0 -46 2 -49 5 -2 3 -7 35 -11 71 l-6 67 47 -6 c27 -2 49 -5 49 -6z m114
-62 l0 -65 -42 3 -43 3 -5 63 -5 62 48 0 47 0 0 -66z m81 56 c29 0 29 0 29
-60 l0 -60 -44 0 -44 0 -4 61 c-3 66 -1 72 20 64 7 -3 27 -5 43 -5z m347 -42
l-3 -53 -42 -6 -43 -5 0 51 c0 28 3 55 7 58 3 4 24 7 45 7 l39 0 -3 -52z
m-228 -12 l0 -54 -35 -4 -35 -4 0 58 0 58 35 0 35 0 0 -54z m122 0 l-4 -54
-39 -4 -39 -4 0 58 0 58 43 0 42 0 -3 -54z m94 -162 c-3 -9 -21 -14 -46 -14
-44 0 -45 3 -34 72 6 34 9 37 43 40 36 3 36 3 39 -41 2 -24 1 -50 -2 -57z
m-99 39 l-4 -58 -37 -3 -36 -3 0 55 0 55 38 4 c20 2 38 4 40 5 2 1 1 -24 -1
-55z m-207 -12 c0 -63 -6 -71 -58 -71 -26 0 -27 3 -29 59 l-3 60 33 4 c17 2
38 5 45 5 8 2 12 -16 12 -57z m90 -1 l0 -60 -41 0 c-33 0 -40 3 -35 16 3 9 6
36 6 60 0 44 0 44 35 44 l35 0 0 -60z m-397 -42 l7 -48 -34 0 c-19 0 -41 -2
-49 -6 -10 -4 -16 6 -20 40 -4 26 -9 57 -13 70 -6 24 -3 25 43 28 54 3 54 3
66 -84z m102 31 c4 -33 6 -62 4 -63 -9 -7 -79 -14 -83 -8 -2 4 -6 35 -10 70
l-7 62 45 0 44 0 7 -61z m103 2 l3 -58 -37 -6 c-21 -4 -39 -5 -40 -4 -1 1 -6
30 -10 65 l-7 62 44 0 44 0 3 -59z m-333 22 c4 -16 10 -46 15 -68 5 -21 8 -40
7 -41 -1 -1 -22 -4 -47 -5 l-45 -4 -11 50 c-6 28 -14 60 -18 73 -7 21 -5 22
43 22 47 0 51 -2 56 -27z"/>
<path d="M493 1243 c7 -42 38 -79 60 -70 9 3 12 15 9 38 -4 29 -6 31 -18 15
-12 -17 -13 -16 -23 3 -6 11 -11 27 -11 35 0 9 -5 16 -11 16 -8 0 -10 -13 -6
-37z"/>
<path d="M2217 522 c-22 -24 -21 -55 1 -75 40 -36 108 -6 100 44 -5 34 -22 33
-35 -2 -16 -42 -39 -33 -36 15 3 40 -6 45 -30 18z"/>
<path d="M2370 521 c-25 -47 0 -91 50 -91 42 0 68 40 50 78 l-13 27 -11 -34
c-13 -38 -24 -45 -45 -32 -11 7 -11 15 -3 40 9 25 8 31 -3 31 -8 0 -19 -9 -25
-19z"/>
<path d="M1942 463 c37 -2 100 -2 140 0 40 1 10 3 -67 3 -77 0 -110 -1 -73 -3z"/>
<path d="M477 453 c-16 -3 -26 -10 -24 -16 4 -14 49 -24 142 -31 l70 -5 -72
12 c-74 13 -97 23 -72 31 40 13 42 14 14 14 -16 -1 -43 -3 -58 -5z"/>
<path d="M1200 449 c32 -13 15 -24 -53 -34 -27 -3 -47 -8 -44 -11 6 -7 161 17
171 27 12 10 -36 29 -72 28 l-27 0 25 -10z"/>
<path d="M1576 441 c-27 -10 -7 -17 70 -25 43 -5 53 -4 37 4 -13 5 -23 14 -23
20 0 11 -55 12 -84 1z"/>
<path d="M2529 443 c10 -4 5 -10 -15 -19 -28 -13 -28 -14 16 -8 25 3 54 8 65
11 20 6 20 6 0 14 -11 4 -33 8 -50 8 -16 -1 -24 -3 -16 -6z"/>
<path d="M1878 403 c23 -2 61 -2 85 0 23 2 4 4 -43 4 -47 0 -66 -2 -42 -4z"/>
<path d="M833 393 c20 -2 54 -2 75 0 20 2 3 4 -38 4 -41 0 -58 -2 -37 -4z"/>
</g>
</svg>
